<svg xmlns="http://www.w3.org/2000/svg" xmlns:xlink="http://www.w3.org/1999/xlink" width="250" zoomAndPan="magnify" viewBox="0 0 187.5 187.499992" height="250" preserveAspectRatio="xMidYMid meet" version="1.0"><defs><clipPath id="1e04ebd850"><path d="M 18.699219 85 L 116 85 L 116 108 L 18.699219 108 Z M 18.699219 85 " clip-rule="nonzero"/></clipPath><clipPath id="dca7e5a8ec"><path d="M 156 82 L 168.300781 82 L 168.300781 94 L 156 94 Z M 156 82 " clip-rule="nonzero"/></clipPath><clipPath id="8fa6c68fbc"><path d="M 150.378906 105.082031 L 162.308594 105.082031 L 162.308594 117.066406 L 150.378906 117.066406 Z M 150.378906 105.082031 " clip-rule="nonzero"/></clipPath><clipPath id="2764e74c80"><path d="M 138 70.039062 L 150 70.039062 L 150 82 L 138 82 Z M 138 70.039062 " clip-rule="nonzero"/></clipPath><clipPath id="f8c321eb6a"><path d="M 138.105469 70.085938 L 150 70.085938 L 150 82 L 138.105469 82 Z M 138.105469 70.085938 " clip-rule="nonzero"/></clipPath></defs><g clip-path="url(#1e04ebd850)"><path fill="#150958" d="M 105.421875 90.023438 C 104.777344 90.023438 104.164062 90.15625 103.519531 90.453125 C 102.902344 90.75 102.363281 91.125 101.910156 91.636719 C 100.917969 92.769531 100.433594 94.332031 100.433594 96.351562 C 100.433594 98.371094 100.890625 99.90625 101.800781 101.148438 C 102.203125 101.6875 102.742188 102.144531 103.410156 102.441406 C 104.054688 102.761719 104.753906 102.925781 105.449219 102.925781 C 106.792969 102.925781 107.917969 102.441406 108.777344 101.496094 C 109.851562 100.285156 110.414062 98.617188 110.414062 96.488281 C 110.414062 94.359375 109.929688 92.769531 108.9375 91.613281 C 108.023438 90.558594 106.871094 90.023438 105.421875 90.023438 M 105.585938 85.875 C 107.515625 85.875 109.3125 86.414062 110.949219 87.4375 C 112.613281 88.511719 113.847656 89.996094 114.570312 91.90625 C 115.109375 93.28125 115.375 94.789062 115.375 96.433594 C 115.375 99.882812 114.277344 102.601562 112.078125 104.621094 C 110.304688 106.238281 108.132812 107.019531 105.476562 107.019531 C 102.820312 107.019531 100.109375 106.023438 98.261719 104.058594 C 96.433594 102.117188 95.523438 99.585938 95.523438 96.433594 C 95.523438 93.28125 96.625 90.210938 98.796875 88.296875 C 100.703125 86.65625 102.957031 85.820312 105.585938 85.820312 Z M 90.910156 90.507812 L 90.910156 103.761719 C 90.910156 104.648438 90.800781 105.296875 90.613281 105.699219 C 90.453125 106.023438 90.183594 106.320312 89.808594 106.535156 C 89.433594 106.75 89.03125 106.859375 88.628906 106.859375 C 88.226562 106.859375 87.824219 106.75 87.449219 106.535156 C 87.074219 106.320312 86.804688 106.050781 86.617188 105.699219 C 86.402344 105.296875 86.320312 104.648438 86.320312 103.761719 L 86.320312 90.507812 L 84.015625 90.507812 C 83.234375 90.507812 82.671875 90.398438 82.296875 90.210938 C 82 90.074219 81.761719 89.808594 81.546875 89.484375 C 81.359375 89.132812 81.25 88.78125 81.25 88.433594 C 81.25 88.082031 81.359375 87.707031 81.546875 87.382812 C 81.734375 87.058594 81.976562 86.789062 82.269531 86.65625 C 82.644531 86.464844 83.210938 86.386719 83.988281 86.386719 L 93.082031 86.386719 C 93.859375 86.386719 94.421875 86.464844 94.800781 86.65625 C 95.09375 86.789062 95.363281 87.03125 95.550781 87.382812 C 95.738281 87.707031 95.84375 88.082031 95.84375 88.433594 C 95.84375 88.78125 95.738281 89.160156 95.550781 89.484375 C 95.363281 89.808594 95.121094 90.074219 94.800781 90.210938 C 94.421875 90.398438 93.859375 90.507812 93.082031 90.507812 L 90.882812 90.507812 Z M 74.222656 85.875 C 75.777344 85.875 77.171875 86.195312 78.351562 86.84375 C 79.238281 87.328125 79.667969 88 79.667969 88.863281 C 79.667969 89.726562 79.425781 90.023438 78.96875 90.480469 C 78.59375 90.832031 78.164062 90.992188 77.628906 90.992188 C 77.09375 90.992188 77.09375 90.964844 76.878906 90.882812 L 76.046875 90.585938 C 75.347656 90.34375 74.652344 90.210938 74.007812 90.210938 C 73.363281 90.210938 72.664062 90.398438 72.183594 90.804688 C 71.859375 91.074219 71.699219 91.421875 71.699219 91.855469 C 71.699219 92.285156 71.914062 92.742188 72.316406 93.011719 C 72.691406 93.253906 73.09375 93.441406 73.578125 93.578125 L 74.8125 93.902344 C 76.769531 94.441406 78.273438 95.140625 79.292969 95.976562 C 80.5 97 81.117188 98.425781 81.117188 100.257812 C 81.117188 102.089844 80.554688 103.652344 79.398438 104.890625 C 78.085938 106.320312 76.097656 107.019531 73.445312 107.019531 C 70.789062 107.019531 69.792969 106.667969 68.347656 105.96875 C 67.191406 105.402344 66.628906 104.59375 66.628906 103.597656 C 66.628906 102.601562 66.84375 102.441406 67.246094 102.007812 C 67.621094 101.605469 68.078125 101.417969 68.613281 101.417969 C 69.152344 101.417969 69.390625 101.496094 69.792969 101.632812 L 71.378906 102.226562 C 72.15625 102.519531 72.90625 102.683594 73.683594 102.683594 C 74.464844 102.683594 75.105469 102.46875 75.5625 102.0625 C 75.992188 101.660156 76.207031 101.175781 76.207031 100.554688 C 76.207031 99.933594 75.9375 99.449219 75.429688 99.128906 C 74.972656 98.832031 73.925781 98.425781 72.234375 97.941406 C 70.867188 97.539062 69.902344 97.160156 69.339844 96.835938 C 67.675781 95.921875 66.816406 94.441406 66.816406 92.390625 C 66.816406 90.34375 67.621094 88.648438 69.203125 87.4375 C 70.601562 86.386719 72.289062 85.875 74.277344 85.875 Z M 64.589844 89.160156 L 64.589844 97.699219 C 64.589844 99.613281 64.375 101.039062 64 101.980469 C 63.300781 103.625 62.121094 104.917969 60.484375 105.863281 C 59.0625 106.667969 57.507812 107.046875 55.816406 107.046875 C 54.128906 107.046875 53.1875 106.777344 51.953125 106.238281 C 50.71875 105.699219 49.726562 104.917969 48.894531 103.949219 C 47.714844 102.546875 47.125 100.851562 47.125 98.882812 L 47.125 89.160156 C 47.125 88.296875 47.230469 87.652344 47.417969 87.246094 C 47.609375 86.925781 47.875 86.65625 48.25 86.4375 C 48.628906 86.222656 49.003906 86.117188 49.433594 86.117188 C 49.859375 86.117188 50.238281 86.222656 50.613281 86.4375 C 50.988281 86.65625 51.257812 86.925781 51.445312 87.246094 C 51.660156 87.652344 51.738281 88.296875 51.738281 89.160156 L 51.738281 98.210938 C 51.738281 99.53125 52.0625 100.554688 52.679688 101.335938 C 53.027344 101.765625 53.511719 102.089844 54.074219 102.332031 C 54.636719 102.574219 55.253906 102.710938 55.84375 102.710938 C 56.433594 102.710938 57.105469 102.574219 57.695312 102.277344 C 58.285156 101.980469 58.742188 101.605469 59.117188 101.121094 C 59.679688 100.367188 59.976562 99.207031 59.976562 97.644531 L 59.976562 89.105469 C 59.976562 88.242188 60.082031 87.597656 60.269531 87.195312 C 60.457031 86.871094 60.726562 86.601562 61.101562 86.386719 C 61.476562 86.167969 61.878906 86.0625 62.28125 86.0625 C 62.683594 86.0625 63.085938 86.167969 63.464844 86.386719 C 63.839844 86.601562 64.105469 86.871094 64.296875 87.195312 C 64.507812 87.597656 64.589844 88.242188 64.589844 89.105469 Z M 39.882812 103.734375 L 39.882812 89.132812 C 39.882812 88.269531 39.988281 87.625 40.175781 87.21875 C 40.363281 86.898438 40.632812 86.628906 41.007812 86.414062 C 41.382812 86.195312 41.757812 86.089844 42.1875 86.089844 C 42.617188 86.089844 42.992188 86.195312 43.367188 86.414062 C 43.746094 86.628906 44.011719 86.898438 44.199219 87.21875 C 44.414062 87.625 44.496094 88.269531 44.496094 89.132812 L 44.496094 103.734375 C 44.496094 104.621094 44.386719 105.269531 44.199219 105.671875 C 44.039062 105.996094 43.746094 106.292969 43.367188 106.507812 C 42.992188 106.722656 42.589844 106.832031 42.1875 106.832031 C 41.785156 106.832031 41.382812 106.722656 41.007812 106.507812 C 40.632812 106.292969 40.363281 106.023438 40.175781 105.671875 C 39.960938 105.269531 39.882812 104.621094 39.882812 103.734375 Z M 33.253906 98.722656 L 31.027344 98.722656 C 30.25 98.722656 29.6875 98.617188 29.3125 98.453125 C 29.015625 98.320312 28.746094 98.074219 28.558594 97.726562 C 28.371094 97.402344 28.265625 97.027344 28.265625 96.675781 C 28.265625 96.324219 28.371094 95.949219 28.558594 95.625 C 28.746094 95.300781 29.015625 95.03125 29.285156 94.898438 C 29.660156 94.710938 30.222656 94.628906 31 94.628906 L 35.480469 94.628906 C 36.257812 94.628906 36.824219 94.816406 37.199219 95.167969 C 37.679688 95.652344 37.921875 96.433594 37.921875 97.539062 C 37.921875 100.230469 37.0625 102.492188 35.292969 104.351562 C 33.601562 106.15625 31.402344 107.074219 28.71875 107.074219 C 26.039062 107.074219 23.167969 105.996094 21.289062 103.839844 C 19.679688 101.902344 18.820312 99.503906 18.820312 96.566406 C 18.820312 93.632812 19.761719 90.9375 21.664062 88.917969 C 23.621094 86.871094 26.089844 85.847656 29.097656 85.847656 C 32.101562 85.847656 32.933594 86.332031 34.597656 87.300781 C 35.9375 88.082031 36.636719 89 36.636719 90.023438 C 36.636719 91.046875 36.421875 91.019531 36.042969 91.421875 C 35.613281 91.855469 35.160156 92.042969 34.621094 92.042969 C 34.085938 92.042969 33.816406 91.90625 33.308594 91.636719 C 33.199219 91.585938 32.71875 91.289062 31.832031 90.722656 C 31.484375 90.507812 31.054688 90.320312 30.492188 90.183594 C 29.925781 90.046875 29.417969 89.96875 28.933594 89.96875 C 27.488281 89.96875 26.277344 90.507812 25.339844 91.613281 C 24.292969 92.824219 23.785156 94.441406 23.785156 96.40625 C 23.785156 98.371094 24.347656 100.175781 25.472656 101.390625 C 26.332031 102.359375 27.539062 102.84375 29.015625 102.84375 C 30.492188 102.84375 31.539062 102.332031 32.289062 101.308594 C 32.746094 100.714844 33.066406 99.828125 33.28125 98.667969 Z M 33.253906 98.722656 " fill-opacity="1" fill-rule="nonzero"/></g><path fill="#00aeef" d="M 145.71875 81.160156 C 150.359375 79.542969 156.746094 85.578125 156.800781 88.59375 L 161.28125 82.992188 C 157.792969 84.390625 150.171875 80.324219 149.421875 75.796875 L 145.71875 81.1875 Z M 145.71875 81.160156 " fill-opacity="1" fill-rule="evenodd"/><path fill="#fff200" d="M 127.769531 83.152344 C 132.414062 84.769531 138.636719 78.898438 138.691406 75.878906 L 143.171875 81.484375 C 139.683594 80.082031 132.0625 84.148438 131.3125 88.703125 Z M 127.769531 83.152344 " fill-opacity="1" fill-rule="evenodd"/><path fill="#fff200" d="M 127.769531 83.152344 C 132.414062 84.769531 138.636719 78.898438 138.691406 75.878906 L 143.171875 81.484375 C 139.683594 80.082031 132.0625 84.148438 131.3125 88.703125 Z M 127.769531 83.152344 " fill-opacity="1" fill-rule="evenodd"/><path fill="#ea0000" d="M 132.679688 105.269531 C 128.148438 103.355469 127.582031 93.902344 129.542969 91.613281 L 122.78125 92.6875 C 126.296875 93.980469 129.757812 105.132812 127.289062 109.011719 Z M 132.679688 105.269531 " fill-opacity="1" fill-rule="evenodd"/><path fill="#00aeef" d="M 156.046875 106.050781 C 161.011719 103.679688 161.308594 94.464844 158.945312 92.175781 L 166.644531 90.722656 C 162.78125 92.367188 158.917969 105.324219 161.976562 109.28125 Z M 156.046875 106.050781 " fill-opacity="1" fill-rule="evenodd"/><path fill="#42b5aa" d="M 156.128906 106.023438 C 161.09375 103.652344 161.28125 94.464844 158.945312 92.175781 L 166.753906 90.695312 C 162.890625 92.339844 159.027344 105.296875 162.085938 109.253906 L 156.15625 106.023438 Z M 156.128906 106.023438 " fill-opacity="1" fill-rule="evenodd"/><path fill="#42b5aa" d="M 155.835938 105.617188 C 160.796875 103.25 160.984375 94.0625 158.652344 91.773438 L 166.457031 90.292969 C 162.59375 91.933594 158.730469 104.890625 161.789062 108.851562 L 155.859375 105.617188 Z M 155.835938 105.617188 " fill-opacity="1" fill-rule="evenodd"/><path fill="#f58220" d="M 137.429688 109.390625 C 140.40625 113.378906 149.179688 112.570312 150.976562 110.144531 L 155.164062 116.90625 C 153.042969 113.78125 137.75 112.972656 134.503906 116.285156 L 137.429688 109.417969 Z M 137.429688 109.390625 " fill-opacity="1" fill-rule="evenodd"/><g clip-path="url(#dca7e5a8ec)"><path fill="#00aeef" d="M 162.433594 82.667969 C 160.796875 82.667969 159.269531 83.449219 158.328125 84.769531 C 156.691406 87.058594 157.175781 90.238281 159.457031 91.90625 C 160.339844 92.554688 161.359375 92.878906 162.433594 92.878906 C 164.070312 92.878906 165.597656 92.097656 166.539062 90.777344 C 167.34375 89.671875 167.664062 88.324219 167.449219 86.976562 C 167.234375 85.632812 166.511719 84.445312 165.410156 83.636719 C 164.527344 82.992188 163.507812 82.667969 162.433594 82.667969 M 162.433594 93.46875 C 161.789062 93.46875 161.144531 93.363281 160.554688 93.148438 C 160.046875 92.957031 159.5625 92.714844 159.105469 92.390625 C 157.660156 91.34375 156.851562 89.699219 156.773438 88.027344 C 156.71875 86.789062 157.066406 85.523438 157.847656 84.445312 C 158.917969 82.964844 160.609375 82.101562 162.433594 82.101562 C 164.257812 82.101562 164.792969 82.480469 165.761719 83.179688 C 166.996094 84.070312 167.800781 85.390625 168.015625 86.898438 C 168.066406 87.246094 168.09375 87.597656 168.09375 87.921875 C 168.09375 89.050781 167.691406 90.183594 167.023438 91.125 C 166.324219 92.097656 165.332031 92.796875 164.230469 93.171875 C 163.667969 93.363281 163.050781 93.46875 162.433594 93.46875 Z M 162.433594 93.46875 " fill-opacity="1" fill-rule="evenodd"/><path fill="#42b5aa" d="M 162.433594 82.667969 C 160.796875 82.667969 159.269531 83.449219 158.328125 84.769531 C 156.691406 87.058594 157.175781 90.238281 159.457031 91.90625 C 160.339844 92.554688 161.359375 92.878906 162.433594 92.878906 C 164.070312 92.878906 165.597656 92.097656 166.539062 90.777344 C 167.34375 89.671875 167.664062 88.324219 167.449219 86.976562 C 167.234375 85.632812 166.511719 84.445312 165.410156 83.636719 C 164.527344 82.992188 163.507812 82.667969 162.433594 82.667969 M 162.433594 93.46875 C 161.789062 93.46875 161.144531 93.363281 160.554688 93.148438 C 160.046875 92.957031 159.5625 92.714844 159.105469 92.390625 C 157.660156 91.34375 156.851562 89.699219 156.773438 88.027344 C 156.71875 86.789062 157.066406 85.523438 157.847656 84.445312 C 158.917969 82.964844 160.609375 82.101562 162.433594 82.101562 C 164.257812 82.101562 164.792969 82.480469 165.761719 83.179688 C 166.996094 84.070312 167.800781 85.390625 168.015625 86.898438 C 168.066406 87.246094 168.09375 87.597656 168.09375 87.921875 C 168.09375 89.050781 167.691406 90.183594 167.023438 91.125 C 166.324219 92.097656 165.332031 92.796875 164.230469 93.171875 C 163.667969 93.363281 163.050781 93.46875 162.433594 93.46875 Z M 162.433594 93.46875 " fill-opacity="1" fill-rule="evenodd"/></g><path fill="#fff200" d="M 126.242188 83.019531 C 124.578125 83.019531 123.023438 83.824219 122.058594 85.171875 C 120.394531 87.488281 120.902344 90.75 123.210938 92.417969 C 124.097656 93.066406 125.140625 93.417969 126.242188 93.417969 C 127.90625 93.417969 129.460938 92.609375 130.425781 91.289062 C 131.230469 90.15625 131.554688 88.78125 131.339844 87.4375 C 131.125 86.0625 130.402344 84.875 129.273438 84.042969 C 128.386719 83.394531 127.34375 83.042969 126.242188 83.042969 M 126.214844 94.007812 C 125.542969 94.007812 124.902344 93.902344 124.308594 93.683594 C 123.800781 93.496094 123.292969 93.226562 122.835938 92.90625 C 121.359375 91.828125 120.554688 90.183594 120.472656 88.460938 C 120.421875 87.195312 120.769531 85.902344 121.574219 84.824219 C 122.648438 83.339844 124.390625 82.453125 126.242188 82.453125 C 128.09375 82.453125 128.628906 82.828125 129.621094 83.558594 C 130.855469 84.472656 131.6875 85.792969 131.929688 87.328125 C 131.984375 87.679688 132.011719 88.027344 132.011719 88.378906 C 131.984375 89.535156 131.609375 90.667969 130.910156 91.636719 C 130.210938 92.636719 129.195312 93.335938 128.066406 93.710938 C 127.476562 93.902344 126.859375 94.007812 126.242188 94.007812 Z M 126.214844 94.007812 " fill-opacity="1" fill-rule="evenodd"/><path fill="#ea0000" d="M 132.546875 105.699219 C 130.882812 105.699219 129.328125 106.507812 128.363281 107.828125 C 126.699219 110.144531 127.207031 113.402344 129.515625 115.074219 C 130.402344 115.71875 131.445312 116.070312 132.546875 116.070312 C 134.210938 116.070312 135.765625 115.261719 136.730469 113.941406 C 137.539062 112.8125 137.859375 111.4375 137.644531 110.0625 C 137.429688 108.691406 136.703125 107.476562 135.578125 106.667969 C 134.691406 106.023438 133.648438 105.671875 132.546875 105.671875 M 132.546875 116.664062 C 131.875 116.664062 131.230469 116.554688 130.640625 116.339844 C 130.132812 116.152344 129.621094 115.910156 129.167969 115.558594 C 127.691406 114.480469 126.886719 112.839844 126.804688 111.113281 C 126.75 109.847656 127.101562 108.554688 127.90625 107.476562 C 128.980469 105.96875 130.722656 105.082031 132.574219 105.082031 C 134.425781 105.082031 134.960938 105.457031 135.953125 106.183594 C 137.1875 107.101562 138.019531 108.449219 138.261719 109.957031 C 138.316406 110.304688 138.34375 110.65625 138.34375 111.007812 C 138.316406 112.164062 137.941406 113.296875 137.242188 114.265625 C 136.515625 115.261719 135.523438 115.964844 134.398438 116.339844 C 133.808594 116.527344 133.191406 116.636719 132.574219 116.636719 Z M 132.546875 116.664062 " fill-opacity="1" fill-rule="evenodd"/><g clip-path="url(#8fa6c68fbc)"><path fill="#f58220" d="M 156.398438 105.78125 C 154.707031 105.78125 153.097656 106.617188 152.105469 107.988281 C 150.386719 110.359375 150.898438 113.699219 153.285156 115.425781 C 154.195312 116.097656 155.269531 116.449219 156.398438 116.449219 C 158.085938 116.449219 159.695312 115.613281 160.691406 114.238281 C 161.523438 113.082031 161.871094 111.679688 161.628906 110.277344 C 161.414062 108.878906 160.664062 107.640625 159.507812 106.804688 C 158.597656 106.132812 157.523438 105.78125 156.398438 105.78125 M 156.371094 117.066406 C 155.699219 117.066406 155.027344 116.960938 154.410156 116.71875 C 153.875 116.527344 153.367188 116.257812 152.910156 115.9375 C 151.40625 114.832031 150.546875 113.132812 150.46875 111.382812 C 150.414062 110.089844 150.761719 108.769531 151.59375 107.640625 C 152.695312 106.105469 154.492188 105.1875 156.371094 105.1875 C 158.25 105.1875 158.839844 105.566406 159.832031 106.320312 C 161.121094 107.261719 161.949219 108.636719 162.191406 110.199219 C 162.246094 110.550781 162.273438 110.925781 162.273438 111.277344 C 162.273438 112.460938 161.871094 113.621094 161.144531 114.617188 C 160.421875 115.640625 159.402344 116.367188 158.222656 116.746094 C 157.632812 116.960938 156.988281 117.039062 156.34375 117.039062 Z M 156.371094 117.066406 " fill-opacity="1" fill-rule="evenodd"/></g><g clip-path="url(#2764e74c80)"><path fill="#00aeef" d="M 144.054688 81.589844 C 142.902344 81.589844 141.777344 81.238281 140.835938 80.539062 C 138.394531 78.761719 137.859375 75.3125 139.628906 72.863281 C 140.648438 71.433594 142.3125 70.597656 144.054688 70.597656 C 145.800781 70.597656 146.335938 70.949219 147.277344 71.648438 C 148.457031 72.511719 149.234375 73.777344 149.449219 75.234375 C 149.691406 76.6875 149.316406 78.140625 148.484375 79.328125 C 147.464844 80.753906 145.800781 81.589844 144.054688 81.589844 " fill-opacity="1" fill-rule="evenodd"/></g><path fill="#42b5aa" d="M 162.433594 93.121094 C 161.308594 93.121094 160.234375 92.769531 159.320312 92.097656 C 156.960938 90.371094 156.425781 87.03125 158.140625 84.660156 C 159.132812 83.289062 160.742188 82.453125 162.433594 82.453125 C 164.125 82.453125 164.632812 82.800781 165.546875 83.476562 C 166.699219 84.3125 167.449219 85.550781 167.664062 86.949219 C 167.878906 88.351562 167.558594 89.753906 166.726562 90.910156 C 165.734375 92.285156 164.125 93.121094 162.433594 93.121094 " fill-opacity="1" fill-rule="evenodd"/><path fill="#fff200" d="M 126.242188 93.523438 C 125.113281 93.523438 124.042969 93.171875 123.128906 92.5 C 120.769531 90.777344 120.234375 87.4375 121.949219 85.066406 C 122.941406 83.691406 124.550781 82.855469 126.242188 82.855469 C 127.933594 82.855469 128.441406 83.207031 129.355469 83.878906 C 130.507812 84.714844 131.257812 85.953125 131.472656 87.355469 C 131.6875 88.753906 131.367188 90.15625 130.535156 91.316406 C 129.542969 92.6875 127.933594 93.523438 126.242188 93.523438 " fill-opacity="1" fill-rule="evenodd"/><path fill="#ea0000" d="M 132.546875 116.234375 C 131.417969 116.234375 130.347656 115.882812 129.433594 115.207031 C 127.074219 113.484375 126.539062 110.144531 128.253906 107.773438 C 129.246094 106.398438 130.855469 105.566406 132.546875 105.566406 C 134.238281 105.566406 134.746094 105.914062 135.660156 106.589844 C 136.8125 107.425781 137.5625 108.664062 137.777344 110.0625 C 137.992188 111.464844 137.671875 112.867188 136.839844 114.023438 C 135.847656 115.398438 134.238281 116.234375 132.546875 116.234375 " fill-opacity="1" fill-rule="evenodd"/><path fill="#f58220" d="M 156.398438 116.664062 C 155.242188 116.664062 154.117188 116.285156 153.179688 115.613281 C 150.738281 113.835938 150.171875 110.359375 151.972656 107.910156 C 152.988281 106.480469 154.652344 105.644531 156.425781 105.644531 C 158.195312 105.644531 158.703125 106.023438 159.644531 106.695312 C 160.824219 107.558594 161.601562 108.851562 161.84375 110.304688 C 162.058594 111.761719 161.734375 113.214844 160.851562 114.402344 C 159.832031 115.828125 158.167969 116.664062 156.398438 116.664062 " fill-opacity="1" fill-rule="evenodd"/><path fill="#150958" d="M 143.199219 89.671875 L 142.875 92.339844 C 143.734375 92.125 144.484375 92.015625 145.15625 92.015625 C 147.195312 92.015625 148.859375 92.636719 150.144531 93.875 C 151.40625 95.113281 152.023438 96.730469 152.023438 98.75 C 152.023438 100.769531 151.300781 102.953125 149.851562 104.40625 C 148.242188 106.023438 146.121094 106.832031 143.519531 106.832031 C 140.917969 106.832031 139.335938 106.265625 137.589844 105.160156 C 136.4375 104.433594 135.847656 103.625 135.847656 102.710938 C 135.847656 101.792969 136.113281 101.46875 136.652344 101.011719 C 137.082031 100.636719 137.589844 100.421875 138.207031 100.421875 C 138.824219 100.421875 138.957031 100.5 139.386719 100.6875 C 139.523438 100.742188 140.003906 101.011719 140.863281 101.496094 C 141.667969 101.957031 142.527344 102.171875 143.464844 102.171875 C 144.40625 102.171875 145.238281 101.792969 145.828125 101.066406 C 146.335938 100.421875 146.605469 99.664062 146.605469 98.777344 C 146.605469 97.886719 146.308594 97.105469 145.746094 96.539062 C 145.238281 96.054688 144.566406 95.8125 143.707031 95.8125 C 142.847656 95.8125 142.820312 95.867188 142.394531 96.003906 C 142.285156 96.027344 141.800781 96.21875 140.945312 96.59375 C 140.59375 96.757812 140.21875 96.808594 139.816406 96.808594 C 139.414062 96.808594 138.824219 96.648438 138.394531 96.324219 C 137.914062 95.976562 137.671875 95.542969 137.671875 95.003906 C 137.671875 94.464844 137.671875 94.601562 137.726562 94.304688 L 138.609375 87.652344 C 138.691406 86.925781 138.957031 86.359375 139.386719 85.953125 C 139.816406 85.550781 140.382812 85.363281 141.050781 85.363281 L 148.671875 85.363281 C 149.554688 85.363281 150.226562 85.46875 150.628906 85.65625 C 150.976562 85.820312 151.246094 86.0625 151.460938 86.414062 C 151.675781 86.761719 151.78125 87.113281 151.78125 87.488281 C 151.78125 87.867188 151.675781 88.21875 151.460938 88.566406 C 151.246094 88.917969 150.949219 89.160156 150.628906 89.320312 C 150.226562 89.511719 149.554688 89.617188 148.671875 89.617188 L 143.199219 89.617188 Z M 143.199219 89.671875 " fill-opacity="1" fill-rule="nonzero"/><g clip-path="url(#f8c321eb6a)"><path fill="#4fc0ad" d="M 144.03125 70.679688 C 142.339844 70.679688 140.730469 71.515625 139.738281 72.890625 C 138.019531 75.261719 138.53125 78.601562 140.917969 80.324219 C 141.828125 80.996094 142.902344 81.347656 144.03125 81.347656 C 145.71875 81.347656 147.328125 80.539062 148.320312 79.140625 C 149.152344 77.980469 149.503906 76.582031 149.261719 75.179688 C 149.019531 73.777344 148.296875 72.539062 147.140625 71.703125 C 146.230469 71.03125 145.15625 70.679688 144.03125 70.679688 M 144.003906 81.96875 C 143.332031 81.96875 142.660156 81.859375 142.042969 81.617188 C 141.507812 81.429688 140.996094 81.160156 140.542969 80.808594 C 139.039062 79.703125 138.179688 78.007812 138.128906 76.257812 C 138.074219 74.964844 138.421875 73.644531 139.253906 72.511719 C 140.355469 71.003906 142.125 70.085938 144.03125 70.085938 C 145.933594 70.085938 146.472656 70.492188 147.492188 71.21875 C 148.777344 72.164062 149.609375 73.535156 149.851562 75.097656 C 149.90625 75.449219 149.933594 75.824219 149.933594 76.175781 C 149.90625 77.359375 149.53125 78.519531 148.804688 79.515625 C 148.082031 80.539062 147.035156 81.265625 145.878906 81.671875 C 145.289062 81.859375 144.644531 81.96875 144.003906 81.96875 Z M 144.003906 81.96875 " fill-opacity="1" fill-rule="evenodd"/><path fill="#00aeef" d="M 144.03125 70.679688 C 142.339844 70.679688 140.730469 71.515625 139.738281 72.890625 C 138.019531 75.261719 138.53125 78.601562 140.917969 80.324219 C 141.828125 80.996094 142.902344 81.347656 144.03125 81.347656 C 145.71875 81.347656 147.328125 80.539062 148.320312 79.140625 C 149.152344 77.980469 149.503906 76.582031 149.261719 75.179688 C 149.019531 73.777344 148.296875 72.539062 147.140625 71.703125 C 146.230469 71.03125 145.15625 70.679688 144.03125 70.679688 M 144.003906 81.96875 C 143.332031 81.96875 142.660156 81.859375 142.042969 81.617188 C 141.507812 81.429688 140.996094 81.160156 140.542969 80.808594 C 139.039062 79.703125 138.179688 78.007812 138.128906 76.257812 C 138.074219 74.964844 138.421875 73.644531 139.253906 72.511719 C 140.355469 71.003906 142.125 70.085938 144.03125 70.085938 C 145.933594 70.085938 146.472656 70.492188 147.492188 71.21875 C 148.777344 72.164062 149.609375 73.535156 149.851562 75.097656 C 149.90625 75.449219 149.933594 75.824219 149.933594 76.175781 C 149.90625 77.359375 149.53125 78.519531 148.804688 79.515625 C 148.082031 80.539062 147.035156 81.265625 145.878906 81.671875 C 145.289062 81.859375 144.644531 81.96875 144.003906 81.96875 Z M 144.003906 81.96875 " fill-opacity="1" fill-rule="evenodd"/></g></svg>