<svg xmlns="http://www.w3.org/2000/svg" xmlns:xlink="http://www.w3.org/1999/xlink" width="250" zoomAndPan="magnify" viewBox="0 0 187.5 187.499992" height="250" preserveAspectRatio="xMidYMid meet" version="1.0"><defs><clipPath id="6fdc574f02"><path d="M 162.203125 77.929688 L 169.699219 77.929688 L 169.699219 85.421875 L 162.203125 85.421875 Z M 162.203125 77.929688 " clip-rule="nonzero"/></clipPath><clipPath id="e105b31234"><path d="M 80.628906 80.269531 L 86.597656 80.269531 L 86.597656 107.765625 L 80.628906 107.765625 Z M 80.628906 80.269531 " clip-rule="nonzero"/></clipPath><clipPath id="3153e6839e"><path d="M 109.171875 80.269531 L 115 80.269531 L 115 107.765625 L 109.171875 107.765625 Z M 109.171875 80.269531 " clip-rule="nonzero"/></clipPath><clipPath id="9dcd6b415c"><path d="M 117.34375 87.269531 L 139.140625 87.269531 L 139.140625 108.449219 L 117.34375 108.449219 Z M 117.34375 87.269531 " clip-rule="nonzero"/></clipPath></defs><path fill="#14120f" d="M 166.667969 83.253906 L 166.023438 82.328125 C 165.984375 82.335938 165.941406 82.335938 165.902344 82.335938 L 165.1875 82.335938 L 165.1875 83.253906 L 164.601562 83.253906 L 164.601562 80.09375 L 165.902344 80.09375 C 166.730469 80.09375 167.246094 80.519531 167.246094 81.21875 C 167.246094 81.699219 167.003906 82.050781 166.574219 82.21875 L 167.300781 83.253906 Z M 165.875 80.59375 L 165.1875 80.59375 L 165.1875 81.851562 L 165.875 81.851562 C 166.390625 81.851562 166.65625 81.617188 166.65625 81.21875 C 166.65625 80.820312 166.390625 80.59375 165.875 80.59375 Z M 165.875 80.59375 " fill-opacity="1" fill-rule="nonzero"/><g clip-path="url(#6fdc574f02)"><path fill="#14120f" d="M 165.953125 85.421875 C 165.445312 85.421875 164.957031 85.324219 164.492188 85.128906 C 164.269531 85.035156 164.058594 84.917969 163.859375 84.785156 C 163.660156 84.648438 163.472656 84.496094 163.300781 84.324219 C 163.128906 84.15625 162.976562 83.96875 162.84375 83.769531 C 162.707031 83.566406 162.59375 83.355469 162.5 83.132812 C 162.304688 82.671875 162.203125 82.179688 162.203125 81.675781 C 162.203125 81.167969 162.304688 80.679688 162.5 80.214844 C 162.59375 79.992188 162.707031 79.78125 162.84375 79.582031 C 162.976562 79.382812 163.128906 79.195312 163.300781 79.027344 C 163.472656 78.855469 163.660156 78.703125 163.859375 78.566406 C 164.058594 78.429688 164.269531 78.316406 164.492188 78.222656 C 164.957031 78.027344 165.445312 77.929688 165.953125 77.929688 C 166.457031 77.929688 166.949219 78.027344 167.410156 78.222656 C 167.632812 78.316406 167.84375 78.429688 168.046875 78.566406 C 168.246094 78.703125 168.429688 78.855469 168.601562 79.027344 C 168.773438 79.195312 168.925781 79.382812 169.058594 79.582031 C 169.195312 79.78125 169.308594 79.992188 169.40625 80.214844 C 169.601562 80.679688 169.699219 81.167969 169.699219 81.675781 C 169.699219 82.179688 169.601562 82.671875 169.40625 83.132812 C 169.308594 83.355469 169.195312 83.566406 169.058594 83.769531 C 168.925781 83.96875 168.773438 84.15625 168.601562 84.324219 C 168.429688 84.496094 168.246094 84.648438 168.046875 84.785156 C 167.84375 84.917969 167.632812 85.035156 167.410156 85.128906 C 166.949219 85.324219 166.457031 85.421875 165.953125 85.421875 Z M 165.953125 78.257812 C 164.066406 78.257812 162.535156 79.789062 162.535156 81.675781 C 162.535156 83.558594 164.066406 85.09375 165.953125 85.09375 C 167.835938 85.09375 169.371094 83.558594 169.371094 81.675781 C 169.371094 79.789062 167.835938 78.257812 165.953125 78.257812 Z M 165.953125 78.257812 " fill-opacity="1" fill-rule="nonzero"/></g><path fill="#14120f" d="M 22.140625 107.308594 L 22.140625 81.730469 C 22.140625 81.503906 22.324219 81.316406 22.554688 81.316406 L 26.890625 81.316406 C 27.109375 81.316406 27.285156 81.492188 27.285156 81.710938 L 27.285156 107.3125 C 27.285156 107.539062 27.101562 107.71875 26.878906 107.71875 L 22.554688 107.71875 C 22.324219 107.71875 22.140625 107.53125 22.140625 107.304688 Z M 39.101562 107.515625 L 30.140625 96.078125 C 29.800781 95.644531 29.277344 95.390625 28.726562 95.390625 L 25.875 95.390625 L 37.242188 81.441406 C 37.308594 81.363281 37.40625 81.316406 37.507812 81.316406 L 43.027344 81.316406 C 43.117188 81.316406 43.160156 81.417969 43.105469 81.488281 L 32.894531 93.976562 L 32.75 91.445312 L 44.859375 106.875 C 45.128906 107.214844 44.886719 107.722656 44.449219 107.722656 L 39.527344 107.722656 C 39.359375 107.722656 39.203125 107.644531 39.101562 107.515625 Z M 39.101562 107.515625 " fill-opacity="1" fill-rule="nonzero"/><path fill="#14120f" d="M 46.429688 107.28125 L 46.429688 88.207031 C 46.429688 88.136719 46.484375 88.082031 46.554688 88.082031 L 50.285156 88.082031 C 50.355469 88.082031 50.410156 88.136719 50.410156 88.207031 L 50.410156 96.382812 C 50.410156 96.453125 50.355469 96.511719 50.285156 96.511719 L 50.175781 96.511719 C 50.105469 96.511719 50.050781 96.453125 50.050781 96.382812 C 50.058594 94.460938 50.3125 92.847656 50.808594 91.535156 C 51.316406 90.199219 52.070312 89.1875 53.074219 88.496094 C 54.074219 87.808594 55.320312 87.464844 56.820312 87.464844 L 57.039062 87.464844 C 58.554688 87.464844 59.820312 87.808594 60.820312 88.496094 C 61.820312 89.183594 62.570312 90.195312 63.066406 91.535156 C 63.550781 92.847656 63.796875 94.460938 63.808594 96.382812 C 63.808594 96.453125 63.75 96.511719 63.679688 96.511719 L 62.667969 96.511719 C 62.597656 96.511719 62.542969 96.453125 62.542969 96.382812 C 62.554688 94.460938 62.8125 92.847656 63.320312 91.535156 C 63.835938 90.199219 64.597656 89.1875 65.597656 88.496094 C 66.601562 87.808594 67.847656 87.464844 69.34375 87.464844 L 69.5625 87.464844 C 71.082031 87.464844 72.351562 87.808594 73.363281 88.496094 C 74.378906 89.183594 75.144531 90.195312 75.660156 91.535156 C 76.179688 92.875 76.4375 94.53125 76.4375 96.511719 L 76.4375 107.597656 C 76.4375 107.667969 76.382812 107.722656 76.3125 107.722656 L 71.699219 107.722656 C 71.539062 107.722656 71.40625 107.589844 71.40625 107.425781 L 71.40625 96.070312 C 71.40625 94.820312 71.085938 93.824219 70.449219 93.085938 C 69.808594 92.351562 68.921875 91.984375 67.785156 91.984375 C 66.648438 91.984375 65.699219 92.367188 65 93.125 C 64.296875 93.882812 63.949219 94.914062 63.949219 96.214844 L 63.949219 107.398438 C 63.949219 107.574219 63.804688 107.71875 63.625 107.71875 L 59.242188 107.71875 C 59.0625 107.71875 58.914062 107.570312 58.914062 107.390625 L 58.914062 96.070312 C 58.914062 94.820312 58.597656 93.824219 57.957031 93.085938 C 57.316406 92.351562 56.429688 91.984375 55.292969 91.984375 C 54.15625 91.984375 53.207031 92.367188 52.507812 93.125 C 51.804688 93.882812 51.457031 94.914062 51.457031 96.214844 L 51.457031 107.367188 C 51.457031 107.5625 51.296875 107.71875 51.105469 107.71875 L 46.867188 107.71875 C 46.621094 107.71875 46.425781 107.519531 46.425781 107.277344 Z M 46.429688 107.28125 " fill-opacity="1" fill-rule="nonzero"/><g clip-path="url(#e105b31234)"><path fill="#14120f" d="M 83.640625 85.730469 C 82.652344 85.730469 81.921875 85.476562 81.449219 84.972656 C 80.976562 84.464844 80.746094 83.800781 80.746094 82.980469 C 80.746094 82.160156 80.980469 81.535156 81.449219 81.027344 C 81.921875 80.523438 82.652344 80.269531 83.640625 80.269531 C 84.628906 80.269531 85.351562 80.523438 85.8125 81.027344 C 86.273438 81.535156 86.5 82.1875 86.5 82.980469 C 86.5 83.777344 86.273438 84.460938 85.8125 84.972656 C 85.351562 85.476562 84.628906 85.730469 83.640625 85.730469 Z M 81.105469 107.175781 L 81.105469 88.625 C 81.105469 88.324219 81.347656 88.082031 81.648438 88.082031 L 85.59375 88.082031 C 85.894531 88.082031 86.136719 88.324219 86.136719 88.625 L 86.136719 107.179688 C 86.136719 107.480469 85.894531 107.722656 85.59375 107.722656 L 81.648438 107.722656 C 81.347656 107.722656 81.105469 107.480469 81.105469 107.179688 Z M 81.105469 107.175781 " fill-opacity="1" fill-rule="nonzero"/></g><path fill="#14120f" d="M 90.515625 84.71875 L 90.515625 81.679688 C 90.515625 81.480469 90.679688 81.316406 90.882812 81.316406 L 95.183594 81.316406 C 95.386719 81.316406 95.550781 81.480469 95.550781 81.679688 L 95.550781 84.71875 C 95.550781 84.917969 95.386719 85.082031 95.183594 85.082031 L 90.882812 85.082031 C 90.679688 85.082031 90.515625 84.917969 90.515625 84.71875 Z M 90.515625 107.355469 L 90.515625 81.679688 C 90.515625 81.480469 90.679688 81.316406 90.882812 81.316406 L 95.183594 81.316406 C 95.386719 81.316406 95.550781 81.480469 95.550781 81.679688 L 95.550781 107.355469 C 95.550781 107.558594 95.386719 107.722656 95.183594 107.722656 L 90.882812 107.722656 C 90.679688 107.722656 90.515625 107.558594 90.515625 107.355469 Z M 90.515625 107.355469 " fill-opacity="1" fill-rule="nonzero"/><path fill="#14120f" d="M 100.09375 84.777344 L 100.09375 81.617188 C 100.09375 81.453125 100.230469 81.320312 100.394531 81.320312 L 104.621094 81.320312 C 104.789062 81.320312 104.921875 81.453125 104.921875 81.617188 L 104.921875 84.777344 C 104.921875 84.945312 104.789062 85.078125 104.621094 85.078125 L 100.394531 85.078125 C 100.230469 85.078125 100.09375 84.945312 100.09375 84.777344 Z M 99.890625 107.421875 L 99.890625 81.617188 C 99.890625 81.453125 100.023438 81.320312 100.191406 81.320312 L 104.621094 81.320312 C 104.785156 81.320312 104.921875 81.453125 104.921875 81.617188 L 104.921875 107.417969 C 104.921875 107.582031 104.785156 107.71875 104.621094 107.71875 L 100.191406 107.71875 C 100.023438 107.71875 99.890625 107.582031 99.890625 107.417969 Z M 99.890625 107.421875 " fill-opacity="1" fill-rule="nonzero"/><g clip-path="url(#3153e6839e)"><path fill="#14120f" d="M 112.125 85.730469 C 111.136719 85.730469 110.40625 85.476562 109.933594 84.972656 C 109.460938 84.464844 109.230469 83.800781 109.230469 82.980469 C 109.230469 82.160156 109.464844 81.535156 109.933594 81.027344 C 110.40625 80.523438 111.136719 80.269531 112.125 80.269531 C 113.113281 80.269531 113.835938 80.523438 114.296875 81.027344 C 114.753906 81.535156 114.984375 82.1875 114.984375 82.980469 C 114.984375 83.777344 114.753906 84.460938 114.296875 84.972656 C 113.835938 85.476562 113.113281 85.730469 112.125 85.730469 Z M 109.589844 91.550781 L 109.589844 88.371094 C 109.589844 88.210938 109.722656 88.082031 109.882812 88.082031 L 114.332031 88.082031 C 114.492188 88.082031 114.625 88.210938 114.625 88.371094 L 114.625 91.550781 C 114.625 91.710938 114.492188 91.84375 114.332031 91.84375 L 109.882812 91.84375 C 109.722656 91.84375 109.589844 91.710938 109.589844 91.550781 Z M 109.589844 107.429688 L 109.589844 88.371094 C 109.589844 88.210938 109.722656 88.082031 109.882812 88.082031 L 114.332031 88.082031 C 114.492188 88.082031 114.625 88.210938 114.625 88.371094 L 114.625 107.429688 C 114.625 107.589844 114.492188 107.722656 114.332031 107.722656 L 109.882812 107.722656 C 109.722656 107.722656 109.589844 107.589844 109.589844 107.429688 Z M 109.589844 107.429688 " fill-opacity="1" fill-rule="nonzero"/></g><path fill="#14120f" d="M 142.023438 107.539062 L 142.023438 88.261719 C 142.023438 88.164062 142.101562 88.082031 142.203125 88.082031 L 145.824219 88.082031 C 145.921875 88.082031 146.003906 88.160156 146.003906 88.261719 L 146.003906 96.328125 C 146.003906 96.425781 145.925781 96.511719 145.824219 96.511719 C 145.722656 96.511719 145.644531 96.425781 145.644531 96.324219 C 145.660156 94.40625 145.925781 92.796875 146.441406 91.5 C 146.96875 90.160156 147.761719 89.15625 148.8125 88.476562 C 149.863281 87.804688 151.171875 87.464844 152.738281 87.464844 L 152.957031 87.464844 C 155.296875 87.464844 157.070312 88.21875 158.277344 89.726562 C 159.484375 91.234375 160.085938 93.484375 160.085938 96.472656 L 160.085938 107.539062 C 160.085938 107.636719 160.007812 107.722656 159.90625 107.722656 L 155.234375 107.722656 C 155.136719 107.722656 155.054688 107.640625 155.054688 107.539062 L 155.054688 96.039062 C 155.054688 94.832031 154.703125 93.855469 154.003906 93.109375 C 153.300781 92.363281 152.363281 91.988281 151.179688 91.988281 C 149.996094 91.988281 148.953125 92.375 148.191406 93.144531 C 147.433594 93.917969 147.054688 94.929688 147.054688 96.1875 L 147.054688 107.542969 C 147.054688 107.640625 146.972656 107.722656 146.871094 107.722656 L 142.199219 107.722656 C 142.101562 107.722656 142.019531 107.644531 142.019531 107.542969 Z M 142.023438 107.539062 " fill-opacity="1" fill-rule="nonzero"/><g clip-path="url(#9dcd6b415c)"><path fill="#14120f" d="M 126.429688 87.445312 C 117.105469 88.566406 114.023438 101.652344 121.992188 106.691406 C 128.140625 110.578125 137.5 107.828125 138.835938 100.261719 C 140.199219 92.53125 134.15625 86.519531 126.429688 87.445312 Z M 132.152344 101.996094 C 132 102.175781 131.113281 103.175781 130.894531 102.941406 C 131.261719 101.984375 131.875 101.292969 132.0625 100.222656 C 132.378906 98.414062 131.675781 96.40625 130 95.3125 C 126.777344 93.214844 124.3125 96.792969 126.976562 99.136719 C 127.734375 99.800781 129.050781 100.023438 128.835938 101.574219 C 128.421875 104.550781 123.257812 102.746094 122.898438 99.476562 C 122.582031 96.558594 123.582031 93.46875 126.539062 92.390625 C 131.988281 90.40625 135.679688 97.734375 132.152344 101.996094 Z M 132.152344 101.996094 " fill-opacity="1" fill-rule="nonzero"/></g></svg>