<svg xmlns="http://www.w3.org/2000/svg" xmlns:xlink="http://www.w3.org/1999/xlink" width="250" zoomAndPan="magnify" viewBox="0 0 187.5 187.499992" height="250" preserveAspectRatio="xMidYMid meet" version="1.0"><defs><clipPath id="f605b8fe95"><path d="M 43.917969 72.417969 L 77.425781 72.417969 L 77.425781 106.34375 L 43.917969 106.34375 Z M 43.917969 72.417969 " clip-rule="nonzero"/></clipPath><clipPath id="70f2764f33"><path d="M 53.550781 72.417969 L 60.828125 95.742188 L 60.914062 95.742188 L 67.796875 72.417969 L 77.425781 72.417969 L 77.425781 106.335938 L 71.019531 106.335938 L 71.019531 82.296875 L 70.929688 82.296875 L 63.308594 106.335938 L 58.035156 106.335938 L 50.410156 82.535156 L 50.328125 82.535156 L 50.328125 106.335938 L 43.917969 106.335938 L 43.917969 72.417969 Z M 53.550781 72.417969 " clip-rule="nonzero"/></clipPath><clipPath id="3508b244ad"><path d="M 134 74.925781 L 140.335938 74.925781 L 140.335938 80.511719 L 134 80.511719 Z M 134 74.925781 " clip-rule="nonzero"/></clipPath><clipPath id="b9ee76175d"><path d="M 134.117188 80.496094 L 137.65625 74.9375 L 140.304688 74.9375 L 140.304688 80.496094 Z M 134.117188 80.496094 " clip-rule="nonzero"/></clipPath><clipPath id="acb33ce945"><path d="M 134 81.691406 L 140.335938 81.691406 L 140.335938 106.34375 L 134 106.34375 Z M 134 81.691406 " clip-rule="nonzero"/></clipPath><clipPath id="f695863fff"><path d="M 140.304688 106.335938 L 140.304688 81.777344 L 134.117188 81.777344 L 134.117188 100.128906 L 138.070312 106.335938 Z M 140.304688 106.335938 " clip-rule="nonzero"/></clipPath><clipPath id="af579d30df"><path d="M 79.988281 81.070312 L 101.191406 81.070312 L 101.191406 106.976562 L 79.988281 106.976562 Z M 79.988281 81.070312 " clip-rule="nonzero"/></clipPath><clipPath id="caa2ec20c3"><path d="M 92.800781 101.824219 C 92.132812 102.265625 91.1875 102.488281 89.96875 102.488281 C 89.476562 102.488281 88.996094 102.4375 88.53125 102.34375 C 88.066406 102.25 87.660156 102.082031 87.3125 101.84375 C 86.964844 101.609375 86.6875 101.285156 86.484375 100.875 C 86.28125 100.464844 86.179688 99.953125 86.179688 99.351562 C 86.179688 98.714844 86.28125 98.199219 86.484375 97.785156 C 86.6875 97.371094 86.957031 97.03125 87.289062 96.761719 C 87.625 96.496094 88.015625 96.28125 88.464844 96.121094 C 88.917969 95.964844 89.375 95.835938 89.839844 95.742188 C 90.332031 95.644531 90.828125 95.566406 91.320312 95.5 C 91.8125 95.4375 92.289062 95.363281 92.734375 95.265625 C 93.183594 95.171875 93.605469 95.054688 93.996094 94.910156 C 94.390625 94.769531 94.714844 94.570312 94.980469 94.316406 L 94.980469 96.832031 C 94.980469 97.210938 94.941406 97.71875 94.867188 98.355469 C 94.792969 98.988281 94.597656 99.609375 94.28125 100.230469 C 93.960938 100.847656 93.46875 101.378906 92.796875 101.820312 M 95.238281 103.957031 C 95.265625 104.371094 95.320312 104.773438 95.394531 105.171875 C 95.464844 105.566406 95.5625 105.957031 95.675781 106.335938 L 98.179688 106.335938 L 101.175781 101.558594 C 101.171875 101.332031 101.167969 101.105469 101.167969 100.875 L 101.167969 88.097656 C 101.167969 86.609375 100.863281 85.414062 100.253906 84.507812 C 99.640625 83.609375 98.859375 82.902344 97.898438 82.394531 C 96.941406 81.890625 95.878906 81.550781 94.714844 81.375 C 93.550781 81.199219 92.40625 81.113281 91.273438 81.113281 C 90.023438 81.113281 88.785156 81.25 87.550781 81.515625 C 86.316406 81.789062 85.203125 82.238281 84.214844 82.871094 C 83.230469 83.503906 82.414062 84.34375 81.773438 85.390625 C 81.136719 86.429688 80.773438 87.746094 80.683594 89.332031 L 86.871094 89.332031 C 86.988281 88.003906 87.394531 87.050781 88.089844 86.484375 C 88.789062 85.917969 89.75 85.625 90.96875 85.625 C 91.519531 85.625 92.035156 85.664062 92.511719 85.746094 C 92.996094 85.824219 93.414062 85.984375 93.777344 86.21875 C 94.140625 86.457031 94.433594 86.792969 94.652344 87.222656 C 94.867188 87.644531 94.980469 88.226562 94.980469 88.953125 C 95.003906 89.652344 94.816406 90.179688 94.410156 90.546875 C 94.007812 90.90625 93.453125 91.183594 92.757812 91.371094 C 92.0625 91.566406 91.261719 91.707031 90.359375 91.800781 C 89.457031 91.898438 88.546875 92.023438 87.617188 92.179688 C 86.683594 92.339844 85.765625 92.558594 84.851562 92.824219 C 83.9375 93.089844 83.125 93.496094 82.410156 94.035156 C 81.699219 94.574219 81.121094 95.292969 80.667969 96.195312 C 80.21875 97.097656 79.988281 98.246094 79.988281 99.640625 C 79.988281 100.910156 80.1875 102 80.578125 102.921875 C 80.972656 103.839844 81.515625 104.597656 82.214844 105.199219 C 82.914062 105.800781 83.726562 106.246094 84.65625 106.53125 C 85.585938 106.816406 86.585938 106.957031 87.660156 106.957031 C 89.054688 106.957031 90.421875 106.734375 91.757812 106.289062 C 93.09375 105.847656 94.257812 105.070312 95.242188 103.960938 Z M 95.238281 103.957031 " clip-rule="nonzero"/></clipPath><clipPath id="e2989008f9"><path d="M 89.144531 60.75 L 144.070312 60.75 L 144.070312 123.578125 L 89.144531 123.578125 Z M 89.144531 60.75 " clip-rule="nonzero"/></clipPath><clipPath id="7ca551c215"><path d="M 129.613281 60.753906 L 89.160156 123.574219 L 103.617188 123.574219 L 144.070312 60.753906 Z M 129.613281 60.753906 " clip-rule="nonzero"/></clipPath><clipPath id="478c13e979"><path d="M 95.195312 64.851562 L 142.394531 64.851562 L 142.394531 116.300781 L 95.195312 116.300781 Z M 95.195312 64.851562 " clip-rule="nonzero"/></clipPath><clipPath id="b487a4dfae"><path d="M 109.699219 64.941406 L 142.308594 116.136719 L 127.855469 116.136719 L 95.242188 64.941406 Z M 109.699219 64.941406 " clip-rule="nonzero"/></clipPath></defs><g clip-path="url(#f605b8fe95)"><g clip-path="url(#70f2764f33)"><path fill="#26292a" d="M 43.917969 72.417969 L 77.425781 72.417969 L 77.425781 106.371094 L 43.917969 106.371094 Z M 43.917969 72.417969 " fill-opacity="1" fill-rule="nonzero"/></g></g><g clip-path="url(#3508b244ad)"><g clip-path="url(#b9ee76175d)"><path fill="#26292a" d="M 79.054688 59.820312 L 145.007812 59.820312 L 145.007812 124.5 L 79.054688 124.5 Z M 79.054688 59.820312 " fill-opacity="1" fill-rule="nonzero"/></g></g><g clip-path="url(#acb33ce945)"><g clip-path="url(#f695863fff)"><path fill="#26292a" d="M 79.054688 59.820312 L 145.007812 59.820312 L 145.007812 124.5 L 79.054688 124.5 Z M 79.054688 59.820312 " fill-opacity="1" fill-rule="nonzero"/></g></g><g clip-path="url(#af579d30df)"><g clip-path="url(#caa2ec20c3)"><path fill="#26292a" d="M 79.054688 59.820312 L 145.007812 59.820312 L 145.007812 124.5 L 79.054688 124.5 Z M 79.054688 59.820312 " fill-opacity="1" fill-rule="nonzero"/></g></g><g clip-path="url(#e2989008f9)"><g clip-path="url(#7ca551c215)"><path fill="#dd1f26" d="M 79.054688 59.820312 L 145.007812 59.820312 L 145.007812 124.5 L 79.054688 124.5 Z M 79.054688 59.820312 " fill-opacity="1" fill-rule="nonzero"/></g></g><g clip-path="url(#478c13e979)"><g clip-path="url(#b487a4dfae)"><path fill="#dd1f26" d="M 79.054688 59.820312 L 145.007812 59.820312 L 145.007812 124.5 L 79.054688 124.5 Z M 79.054688 59.820312 " fill-opacity="1" fill-rule="nonzero"/></g></g></svg>