<svg xmlns="http://www.w3.org/2000/svg" xmlns:xlink="http://www.w3.org/1999/xlink" width="250" zoomAndPan="magnify" viewBox="0 0 187.5 187.499992" height="250" preserveAspectRatio="xMidYMid meet" version="1.0"><defs><clipPath id="9ec26b9ee2"><path d="M 40.410156 61.675781 L 64 61.675781 L 64 88 L 40.410156 88 Z M 40.410156 61.675781 " clip-rule="nonzero"/></clipPath><clipPath id="dfdb717c71"><path d="M 128 117 L 134 117 L 134 125.257812 L 128 125.257812 Z M 128 117 " clip-rule="nonzero"/></clipPath><clipPath id="f9258ae770"><path d="M 138 85 L 146.628906 85 L 146.628906 116 L 138 116 Z M 138 85 " clip-rule="nonzero"/></clipPath><clipPath id="361061a587"><path d="M 140 109 L 146.628906 109 L 146.628906 116 L 140 116 Z M 140 109 " clip-rule="nonzero"/></clipPath></defs><g clip-path="url(#9ec26b9ee2)"><path fill="#000000" d="M 42.15625 87.582031 L 40.410156 63.464844 C 40.398438 63.304688 40.519531 63.167969 40.679688 63.152344 L 44.542969 62.875 C 44.636719 62.867188 44.726562 62.90625 44.789062 62.976562 L 57.757812 78.4375 C 57.9375 78.652344 58.289062 78.511719 58.269531 78.230469 L 57.113281 62.257812 C 57.101562 62.097656 57.222656 61.960938 57.378906 61.949219 L 61.105469 61.679688 C 61.265625 61.667969 61.402344 61.789062 61.414062 61.945312 L 63.160156 86.066406 C 63.171875 86.226562 63.050781 86.367188 62.894531 86.378906 L 59.605469 86.613281 C 59.148438 86.648438 58.703125 86.460938 58.410156 86.109375 L 45.8125 71.09375 C 45.632812 70.878906 45.28125 71.019531 45.300781 71.300781 L 46.457031 87.273438 C 46.46875 87.433594 46.351562 87.570312 46.191406 87.582031 L 42.464844 87.851562 C 42.304688 87.863281 42.167969 87.742188 42.15625 87.585938 Z M 42.15625 87.582031 " fill-opacity="1" fill-rule="nonzero"/></g><path fill="#000000" d="M 68.386719 69.828125 C 69.992188 67.828125 72.023438 66.742188 74.484375 66.566406 C 75.863281 66.464844 77.164062 66.730469 78.390625 67.355469 C 79.070312 67.703125 79.660156 68.117188 80.164062 68.597656 C 80.546875 68.96875 81.191406 68.691406 81.1875 68.15625 L 81.183594 66.921875 C 81.179688 66.601562 81.425781 66.335938 81.746094 66.3125 L 84.265625 66.132812 C 84.601562 66.105469 84.890625 66.359375 84.917969 66.695312 L 86.175781 84.089844 C 86.199219 84.425781 85.949219 84.714844 85.613281 84.738281 L 83.09375 84.921875 C 82.773438 84.941406 82.492188 84.714844 82.445312 84.398438 L 82.273438 83.183594 C 82.199219 82.65625 81.53125 82.46875 81.199219 82.890625 C 80.773438 83.429688 80.246094 83.917969 79.621094 84.355469 C 78.496094 85.136719 77.246094 85.578125 75.867188 85.679688 C 73.40625 85.855469 71.230469 85.074219 69.347656 83.328125 C 67.460938 81.582031 66.421875 79.402344 66.234375 76.785156 C 66.042969 74.144531 66.761719 71.828125 68.390625 69.828125 Z M 72.242188 80.296875 C 73.40625 81.324219 74.757812 81.78125 76.292969 81.671875 C 77.832031 81.558594 79.140625 80.914062 80.15625 79.742188 C 81.171875 78.570312 81.625 77.21875 81.511719 75.683594 C 81.402344 74.125 80.757812 72.839844 79.582031 71.824219 C 78.40625 70.8125 77.042969 70.359375 75.484375 70.472656 C 73.949219 70.582031 72.675781 71.222656 71.671875 72.394531 C 70.667969 73.570312 70.222656 74.933594 70.335938 76.488281 C 70.445312 78.019531 71.082031 79.289062 72.246094 80.292969 Z M 72.242188 80.296875 " fill-opacity="1" fill-rule="nonzero"/><path fill="#000000" d="M 42.503906 91.667969 L 64.058594 90.113281 C 64.339844 90.09375 64.578125 90.300781 64.601562 90.582031 L 64.886719 94.535156 C 64.90625 94.8125 64.695312 95.054688 64.417969 95.078125 L 56.753906 95.628906 C 56.472656 95.648438 56.265625 95.890625 56.285156 96.171875 L 57.828125 117.515625 C 57.847656 117.796875 57.636719 118.039062 57.359375 118.058594 L 53.195312 118.359375 C 52.917969 118.378906 52.675781 118.167969 52.652344 117.890625 L 51.109375 96.542969 C 51.089844 96.265625 50.847656 96.054688 50.566406 96.074219 L 42.863281 96.632812 C 42.582031 96.652344 42.339844 96.441406 42.320312 96.164062 L 42.035156 92.210938 C 42.015625 91.929688 42.222656 91.691406 42.503906 91.667969 Z M 42.503906 91.667969 " fill-opacity="1" fill-rule="nonzero"/><path fill="#000000" d="M 68.183594 97.882812 L 70.871094 97.691406 C 71.175781 97.667969 71.445312 97.878906 71.496094 98.179688 L 71.644531 99.058594 C 71.726562 99.554688 72.359375 99.730469 72.675781 99.339844 C 73.765625 98.003906 75.34375 97.261719 77.414062 97.113281 L 77.585938 97.101562 C 77.914062 97.078125 78.226562 97.066406 78.527344 97.066406 C 78.886719 97.066406 79.164062 97.378906 79.113281 97.734375 L 78.722656 100.621094 C 78.683594 100.90625 78.449219 101.117188 78.164062 101.128906 C 78.109375 101.132812 78.050781 101.136719 77.988281 101.140625 C 76.261719 101.265625 74.878906 101.898438 73.835938 103.035156 C 72.792969 104.175781 72.359375 105.957031 72.535156 108.375 L 73.105469 116.238281 C 73.128906 116.5625 72.882812 116.84375 72.558594 116.867188 L 69.574219 117.082031 C 69.25 117.105469 68.96875 116.863281 68.945312 116.539062 L 67.640625 98.511719 C 67.617188 98.1875 67.859375 97.90625 68.183594 97.882812 Z M 68.183594 97.882812 " fill-opacity="1" fill-rule="nonzero"/><path fill="#000000" d="M 82.398438 99.292969 C 84.050781 97.234375 86.148438 96.109375 88.691406 95.925781 C 90.113281 95.824219 91.457031 96.09375 92.71875 96.742188 C 93.382812 97.078125 93.960938 97.480469 94.460938 97.941406 C 94.898438 98.347656 95.609375 98.046875 95.605469 97.449219 L 95.601562 96.34375 C 95.597656 95.988281 95.875 95.691406 96.230469 95.664062 L 98.730469 95.484375 C 99.101562 95.457031 99.429688 95.738281 99.457031 96.113281 L 100.746094 113.960938 C 100.773438 114.332031 100.492188 114.660156 100.117188 114.683594 L 97.617188 114.863281 C 97.261719 114.890625 96.945312 114.636719 96.898438 114.28125 L 96.742188 113.195312 C 96.660156 112.605469 95.917969 112.40625 95.542969 112.867188 C 95.113281 113.386719 94.597656 113.859375 93.988281 114.285156 C 92.828125 115.09375 91.539062 115.546875 90.117188 115.652344 C 87.574219 115.832031 85.332031 115.027344 83.386719 113.222656 C 81.441406 111.421875 80.371094 109.171875 80.175781 106.472656 C 79.976562 103.75 80.71875 101.355469 82.398438 99.292969 Z M 86.378906 110.097656 C 87.578125 111.15625 88.972656 111.628906 90.554688 111.515625 C 92.164062 111.398438 93.492188 110.734375 94.542969 109.523438 C 95.589844 108.316406 96.058594 106.917969 95.941406 105.335938 C 95.828125 103.730469 95.164062 102.40625 93.949219 101.355469 C 92.738281 100.308594 91.328125 99.84375 89.722656 99.960938 C 88.136719 100.074219 86.824219 100.738281 85.789062 101.945312 C 84.75 103.15625 84.289062 104.5625 84.40625 106.167969 C 84.519531 107.753906 85.179688 109.0625 86.378906 110.097656 Z M 86.378906 110.097656 " fill-opacity="1" fill-rule="nonzero"/><path fill="#000000" d="M 104.90625 95.371094 L 110.042969 107.273438 C 110.242188 107.703125 110.871094 107.65625 111.007812 107.203125 L 114.476562 94.683594 C 114.539062 94.476562 114.71875 94.332031 114.933594 94.316406 L 118.304688 94.074219 C 118.667969 94.046875 118.941406 94.390625 118.835938 94.738281 L 113.5 112.429688 C 113.257812 113.226562 112.550781 113.789062 111.726562 113.847656 L 110.386719 113.945312 C 109.558594 114.003906 108.777344 113.546875 108.425781 112.796875 L 100.597656 96.054688 C 100.445312 95.726562 100.667969 95.347656 101.027344 95.320312 L 104.398438 95.078125 C 104.613281 95.0625 104.816406 95.179688 104.90625 95.375 Z M 104.90625 95.371094 " fill-opacity="1" fill-rule="nonzero"/><path fill="#000000" d="M 121.972656 96.476562 C 123.742188 94.40625 125.980469 93.273438 128.683594 93.078125 C 131.433594 92.878906 133.824219 93.671875 135.851562 95.457031 C 137.875 97.238281 138.988281 99.492188 139.183594 102.214844 C 139.1875 102.285156 139.195312 102.835938 139.207031 103.875 C 139.207031 103.945312 139.152344 104.007812 139.078125 104.015625 L 124.386719 105.074219 C 124.296875 105.078125 124.234375 105.167969 124.261719 105.253906 C 124.625 106.367188 125.34375 107.269531 126.421875 107.960938 C 127.550781 108.6875 128.839844 108.996094 130.285156 108.894531 C 132.316406 108.746094 133.910156 107.957031 135.058594 106.527344 C 135.101562 106.476562 135.171875 106.460938 135.230469 106.492188 L 138.46875 108.21875 C 138.539062 108.257812 138.5625 108.351562 138.519531 108.421875 C 137.703125 109.617188 136.585938 110.601562 135.171875 111.382812 C 133.707031 112.191406 132.171875 112.652344 130.5625 112.765625 C 127.648438 112.976562 125.144531 112.191406 123.050781 110.414062 C 120.953125 108.636719 119.804688 106.375 119.605469 103.628906 C 119.410156 100.925781 120.199219 98.542969 121.972656 96.472656 Z M 124.125 101.722656 L 134.617188 100.96875 C 134.699219 100.960938 134.757812 100.882812 134.746094 100.804688 C 134.511719 99.648438 133.882812 98.699219 132.851562 97.953125 C 131.773438 97.175781 130.492188 96.84375 129 96.949219 C 127.554688 97.054688 126.363281 97.574219 125.425781 98.507812 C 124.523438 99.398438 124.042969 100.425781 123.976562 101.578125 C 123.972656 101.660156 124.042969 101.730469 124.125 101.722656 Z M 124.125 101.722656 " fill-opacity="1" fill-rule="nonzero"/><path fill="#000000" d="M 122.445312 119.617188 C 122.628906 119.226562 122.894531 118.914062 123.246094 118.675781 C 123.597656 118.445312 123.996094 118.308594 124.445312 118.277344 C 124.894531 118.242188 125.277344 118.308594 125.617188 118.46875 C 125.957031 118.628906 126.21875 118.84375 126.398438 119.109375 L 126.335938 118.222656 L 127.183594 118.160156 L 127.535156 123.039062 L 126.6875 123.101562 L 126.621094 122.191406 C 126.476562 122.488281 126.246094 122.742188 125.929688 122.953125 C 125.613281 123.164062 125.238281 123.285156 124.800781 123.316406 C 124.351562 123.351562 123.9375 123.273438 123.5625 123.085938 C 123.183594 122.898438 122.875 122.617188 122.636719 122.246094 C 122.402344 121.878906 122.265625 121.445312 122.230469 120.953125 C 122.195312 120.460938 122.265625 120.007812 122.449219 119.617188 Z M 126.210938 119.707031 C 126.035156 119.445312 125.8125 119.253906 125.542969 119.125 C 125.269531 119 124.976562 118.949219 124.660156 118.96875 C 124.347656 118.992188 124.066406 119.085938 123.820312 119.246094 C 123.570312 119.40625 123.378906 119.628906 123.246094 119.914062 C 123.113281 120.195312 123.058594 120.523438 123.085938 120.890625 C 123.113281 121.265625 123.214844 121.585938 123.386719 121.851562 C 123.558594 122.117188 123.78125 122.3125 124.050781 122.4375 C 124.320312 122.566406 124.609375 122.617188 124.925781 122.59375 C 125.238281 122.570312 125.519531 122.480469 125.773438 122.3125 C 126.023438 122.152344 126.214844 121.925781 126.347656 121.636719 C 126.484375 121.351562 126.535156 121.023438 126.511719 120.652344 C 126.484375 120.285156 126.382812 119.972656 126.210938 119.707031 Z M 126.210938 119.707031 " fill-opacity="1" fill-rule="nonzero"/><g clip-path="url(#dfdb717c71)"><path fill="#000000" d="M 130.199219 118.144531 C 130.515625 117.933594 130.894531 117.8125 131.328125 117.78125 C 131.765625 117.75 132.191406 117.824219 132.574219 118.003906 C 132.957031 118.1875 133.261719 118.457031 133.5 118.820312 C 133.738281 119.179688 133.871094 119.609375 133.910156 120.109375 C 133.945312 120.609375 133.871094 121.050781 133.691406 121.449219 C 133.507812 121.851562 133.242188 122.171875 132.894531 122.410156 C 132.542969 122.652344 132.144531 122.789062 131.691406 122.820312 C 131.242188 122.855469 130.875 122.785156 130.53125 122.621094 C 130.191406 122.457031 129.921875 122.246094 129.730469 121.976562 L 129.960938 125.191406 L 129.121094 125.253906 L 128.601562 118.058594 L 129.441406 117.996094 L 129.507812 118.894531 C 129.652344 118.605469 129.882812 118.355469 130.199219 118.144531 Z M 132.75 119.226562 C 132.578125 118.964844 132.355469 118.773438 132.082031 118.648438 C 131.808594 118.527344 131.515625 118.476562 131.203125 118.5 C 130.890625 118.519531 130.617188 118.613281 130.367188 118.777344 C 130.117188 118.941406 129.921875 119.167969 129.785156 119.457031 C 129.648438 119.742188 129.589844 120.066406 129.617188 120.429688 C 129.644531 120.789062 129.746094 121.113281 129.925781 121.378906 C 130.101562 121.644531 130.324219 121.839844 130.597656 121.964844 C 130.867188 122.09375 131.160156 122.144531 131.46875 122.121094 C 131.773438 122.097656 132.0625 122.007812 132.3125 121.839844 C 132.566406 121.675781 132.757812 121.453125 132.890625 121.164062 C 133.023438 120.875 133.078125 120.546875 133.050781 120.171875 C 133.023438 119.796875 132.921875 119.488281 132.75 119.226562 Z M 132.75 119.226562 " fill-opacity="1" fill-rule="nonzero"/></g><path fill="#000000" d="M 136.4375 117.695312 C 136.753906 117.484375 137.132812 117.363281 137.566406 117.332031 C 138.003906 117.300781 138.429688 117.375 138.8125 117.554688 C 139.195312 117.738281 139.503906 118.007812 139.738281 118.371094 C 139.976562 118.730469 140.109375 119.160156 140.148438 119.660156 C 140.183594 120.160156 140.109375 120.601562 139.929688 121 C 139.75 121.402344 139.484375 121.722656 139.132812 121.960938 C 138.78125 122.203125 138.382812 122.339844 137.933594 122.371094 C 137.480469 122.40625 137.113281 122.335938 136.773438 122.171875 C 136.429688 122.007812 136.160156 121.796875 135.96875 121.527344 L 136.199219 124.742188 L 135.359375 124.804688 L 134.839844 117.609375 L 135.679688 117.546875 L 135.746094 118.445312 C 135.890625 118.15625 136.121094 117.90625 136.4375 117.695312 Z M 138.988281 118.777344 C 138.816406 118.515625 138.59375 118.324219 138.320312 118.199219 C 138.050781 118.074219 137.753906 118.023438 137.441406 118.046875 C 137.128906 118.070312 136.855469 118.164062 136.605469 118.328125 C 136.355469 118.492188 136.160156 118.71875 136.023438 119.003906 C 135.886719 119.292969 135.832031 119.617188 135.859375 119.980469 C 135.886719 120.347656 135.988281 120.664062 136.164062 120.929688 C 136.339844 121.195312 136.5625 121.390625 136.835938 121.515625 C 137.105469 121.640625 137.398438 121.695312 137.707031 121.671875 C 138.015625 121.648438 138.300781 121.554688 138.554688 121.390625 C 138.804688 121.226562 138.996094 121 139.128906 120.710938 C 139.265625 120.425781 139.316406 120.09375 139.289062 119.722656 C 139.261719 119.351562 139.160156 119.039062 138.988281 118.777344 Z M 138.988281 118.777344 " fill-opacity="1" fill-rule="nonzero"/><path fill="#000000" d="M 139.230469 89.25 L 67.285156 94.757812 C 66.976562 94.78125 66.714844 94.550781 66.695312 94.25 L 66.464844 90.382812 C 66.445312 90.078125 66.675781 89.820312 66.976562 89.804688 L 138.996094 85.511719 C 139.296875 85.492188 139.554688 85.722656 139.574219 86.023438 L 139.734375 88.671875 C 139.75 88.96875 139.527344 89.226562 139.230469 89.25 Z M 139.230469 89.25 " fill-opacity="1" fill-rule="nonzero"/><g clip-path="url(#f9258ae770)"><path fill="#000000" d="M 141.605469 110.367188 C 142.121094 109.789062 142.773438 109.472656 143.570312 109.425781 C 144.367188 109.378906 145.011719 109.621094 145.59375 110.148438 C 146.175781 110.679688 146.492188 111.339844 146.539062 112.132812 C 146.589844 112.929688 146.355469 113.621094 145.839844 114.214844 C 145.324219 114.808594 144.683594 115.128906 143.917969 115.175781 C 143.148438 115.222656 142.425781 114.984375 141.832031 114.457031 C 141.234375 113.929688 140.914062 113.269531 140.863281 112.476562 C 140.816406 111.679688 141.0625 110.980469 141.605469 110.371094 Z M 138.976562 85.511719 L 142.566406 85.289062 C 143.367188 85.238281 144.054688 85.859375 144.085938 86.660156 L 144.90625 107.894531 C 144.910156 108.007812 144.820312 108.105469 144.707031 108.113281 L 142.042969 108.273438 C 141.933594 108.28125 141.835938 108.199219 141.824219 108.089844 Z M 138.976562 85.511719 " fill-opacity="1" fill-rule="nonzero"/></g><g clip-path="url(#361061a587)"><path fill="#f7931e" d="M 146.625 112.316406 C 146.625 112.710938 146.550781 113.089844 146.402344 113.453125 C 146.253906 113.820312 146.042969 114.140625 145.769531 114.417969 C 145.496094 114.699219 145.179688 114.914062 144.820312 115.066406 C 144.464844 115.214844 144.089844 115.289062 143.703125 115.289062 C 143.316406 115.289062 142.941406 115.214844 142.585938 115.066406 C 142.226562 114.914062 141.910156 114.699219 141.636719 114.417969 C 141.363281 114.140625 141.148438 113.820312 141 113.453125 C 140.855469 113.089844 140.78125 112.710938 140.78125 112.316406 C 140.78125 111.921875 140.855469 111.542969 141 111.175781 C 141.148438 110.8125 141.363281 110.492188 141.636719 110.210938 C 141.910156 109.933594 142.226562 109.71875 142.585938 109.566406 C 142.941406 109.414062 143.316406 109.339844 143.703125 109.339844 C 144.089844 109.339844 144.464844 109.414062 144.820312 109.566406 C 145.179688 109.71875 145.496094 109.933594 145.769531 110.210938 C 146.042969 110.492188 146.253906 110.8125 146.402344 111.175781 C 146.550781 111.542969 146.625 111.921875 146.625 112.316406 Z M 146.625 112.316406 " fill-opacity="1" fill-rule="nonzero"/></g></svg>