<svg xmlns="http://www.w3.org/2000/svg" xmlns:xlink="http://www.w3.org/1999/xlink" width="250" zoomAndPan="magnify" viewBox="0 0 187.5 187.499992" height="250" preserveAspectRatio="xMidYMid meet" version="1.0"><path fill="#000000" d="M 69.074219 104.242188 C 68.054688 104.242188 67.058594 104.164062 66.085938 104.011719 C 65.109375 103.855469 64.191406 103.617188 63.328125 103.296875 C 62.464844 102.980469 61.691406 102.585938 61.003906 102.121094 C 60.671875 101.878906 60.445312 101.601562 60.324219 101.292969 C 60.203125 100.984375 60.167969 100.679688 60.226562 100.382812 C 60.28125 100.085938 60.40625 99.824219 60.609375 99.605469 C 60.804688 99.382812 61.050781 99.242188 61.339844 99.1875 C 61.625 99.132812 61.945312 99.226562 62.300781 99.46875 C 63.296875 100.113281 64.347656 100.578125 65.457031 100.878906 C 66.5625 101.179688 67.769531 101.328125 69.074219 101.328125 C 70.953125 101.328125 72.34375 100.988281 73.242188 100.316406 C 74.136719 99.640625 74.585938 98.765625 74.585938 97.683594 C 74.585938 96.796875 74.265625 96.097656 73.625 95.578125 C 72.980469 95.058594 71.90625 94.644531 70.402344 94.335938 L 66.847656 93.605469 C 64.746094 93.164062 63.179688 92.433594 62.152344 91.417969 C 61.125 90.402344 60.609375 89.03125 60.609375 87.308594 C 60.609375 86.269531 60.824219 85.320312 61.253906 84.457031 C 61.6875 83.59375 62.289062 82.851562 63.066406 82.222656 C 63.839844 81.59375 64.769531 81.113281 65.855469 80.78125 C 66.9375 80.449219 68.121094 80.28125 69.40625 80.28125 C 70.777344 80.28125 72.066406 80.457031 73.273438 80.8125 C 74.480469 81.167969 75.5625 81.707031 76.511719 82.4375 C 76.796875 82.636719 76.992188 82.886719 77.09375 83.183594 C 77.195312 83.480469 77.214844 83.773438 77.160156 84.058594 C 77.101562 84.347656 76.976562 84.589844 76.777344 84.789062 C 76.578125 84.988281 76.324219 85.105469 76.011719 85.136719 C 75.703125 85.171875 75.359375 85.066406 74.984375 84.824219 C 74.121094 84.25 73.242188 83.835938 72.34375 83.578125 C 71.449219 83.324219 70.457031 83.199219 69.375 83.199219 C 68.289062 83.199219 67.34375 83.363281 66.535156 83.695312 C 65.726562 84.027344 65.109375 84.492188 64.675781 85.085938 C 64.246094 85.683594 64.027344 86.390625 64.027344 87.207031 C 64.027344 88.136719 64.328125 88.875 64.925781 89.429688 C 65.523438 89.980469 66.519531 90.402344 67.914062 90.6875 L 71.433594 91.417969 C 73.644531 91.878906 75.292969 92.597656 76.378906 93.570312 C 77.464844 94.542969 78.007812 95.835938 78.007812 97.445312 C 78.007812 98.484375 77.796875 99.417969 77.378906 100.246094 C 76.957031 101.074219 76.359375 101.789062 75.585938 102.382812 C 74.808594 102.980469 73.875 103.441406 72.78125 103.761719 C 71.683594 104.078125 70.449219 104.238281 69.078125 104.238281 Z M 69.074219 104.242188 " fill-opacity="1" fill-rule="nonzero"/><path fill="#000000" d="M 90.421875 104.242188 C 88.207031 104.242188 86.273438 103.75 84.625 102.769531 C 82.976562 101.785156 81.707031 100.394531 80.808594 98.59375 C 79.910156 96.792969 79.464844 94.675781 79.464844 92.246094 C 79.464844 90.414062 79.71875 88.761719 80.226562 87.292969 C 80.734375 85.824219 81.464844 84.5625 82.417969 83.515625 C 83.367188 82.464844 84.519531 81.664062 85.871094 81.113281 C 87.21875 80.5625 88.734375 80.285156 90.417969 80.285156 C 92.652344 80.285156 94.589844 80.769531 96.226562 81.742188 C 97.867188 82.714844 99.132812 84.09375 100.027344 85.886719 C 100.925781 87.675781 101.375 89.785156 101.375 92.214844 C 101.375 94.046875 101.121094 95.703125 100.609375 97.183594 C 100.101562 98.664062 99.367188 99.933594 98.402344 100.996094 C 97.441406 102.054688 96.28125 102.859375 94.933594 103.414062 C 93.582031 103.964844 92.078125 104.242188 90.417969 104.242188 Z M 90.421875 101.257812 C 91.96875 101.257812 93.292969 100.90625 94.386719 100.199219 C 95.484375 99.492188 96.324219 98.464844 96.910156 97.117188 C 97.496094 95.769531 97.789062 94.144531 97.789062 92.246094 C 97.789062 89.394531 97.148438 87.1875 95.863281 85.617188 C 94.578125 84.046875 92.765625 83.265625 90.417969 83.265625 C 88.867188 83.265625 87.546875 83.613281 86.453125 84.308594 C 85.355469 85.003906 84.515625 86.027344 83.929688 87.375 C 83.34375 88.722656 83.050781 90.347656 83.050781 92.246094 C 83.050781 95.074219 83.695312 97.28125 84.992188 98.875 C 86.289062 100.464844 88.097656 101.261719 90.421875 101.261719 Z M 90.421875 101.257812 " fill-opacity="1" fill-rule="nonzero"/><path fill="#000000" d="M 106.089844 103.945312 C 105.535156 103.945312 105.105469 103.789062 104.796875 103.480469 C 104.484375 103.171875 104.332031 102.742188 104.332031 102.1875 L 104.332031 82.207031 C 104.332031 81.632812 104.480469 81.195312 104.78125 80.898438 C 105.078125 80.601562 105.503906 80.453125 106.058594 80.453125 C 106.609375 80.453125 107.039062 80.601562 107.335938 80.898438 C 107.636719 81.199219 107.785156 81.632812 107.785156 82.207031 L 107.785156 100.996094 L 118.074219 100.996094 C 118.5625 100.996094 118.941406 101.125 119.203125 101.378906 C 119.46875 101.632812 119.601562 101.992188 119.601562 102.453125 C 119.601562 102.917969 119.46875 103.28125 119.203125 103.550781 C 118.941406 103.8125 118.5625 103.945312 118.074219 103.945312 Z M 106.089844 103.945312 " fill-opacity="1" fill-rule="nonzero"/><path fill="#000000" d="M 122.722656 104.175781 C 122.167969 104.175781 121.742188 104.019531 121.445312 103.714844 C 121.144531 103.402344 120.996094 102.972656 120.996094 102.421875 L 120.996094 82.109375 C 120.996094 81.535156 121.144531 81.097656 121.445312 80.800781 C 121.746094 80.5 122.171875 80.351562 122.722656 80.351562 C 123.277344 80.351562 123.703125 80.5 124 80.800781 C 124.300781 81.097656 124.449219 81.535156 124.449219 82.109375 L 124.449219 102.421875 C 124.449219 102.972656 124.304688 103.402344 124.019531 103.714844 C 123.730469 104.023438 123.296875 104.175781 122.722656 104.175781 Z M 122.722656 104.175781 " fill-opacity="1" fill-rule="nonzero"/><path fill="#000000" d="M 130.09375 103.945312 C 129.496094 103.945312 129.035156 103.785156 128.714844 103.464844 C 128.394531 103.144531 128.234375 102.683594 128.234375 102.089844 L 128.234375 82.4375 C 128.234375 81.84375 128.394531 81.386719 128.714844 81.0625 C 129.035156 80.742188 129.496094 80.582031 130.09375 80.582031 L 136.503906 80.582031 C 140.351562 80.582031 143.324219 81.585938 145.417969 83.582031 C 147.507812 85.582031 148.554688 88.46875 148.554688 92.246094 C 148.554688 94.125 148.289062 95.792969 147.757812 97.25 C 147.226562 98.707031 146.445312 99.929688 145.417969 100.910156 C 144.386719 101.894531 143.128906 102.648438 141.648438 103.164062 C 140.164062 103.683594 138.449219 103.945312 136.503906 103.945312 Z M 131.6875 101.058594 L 136.300781 101.058594 C 137.761719 101.058594 139.027344 100.878906 140.101562 100.515625 C 141.175781 100.148438 142.078125 99.605469 142.808594 98.875 C 143.539062 98.144531 144.082031 97.230469 144.4375 96.125 C 144.789062 95.019531 144.96875 93.726562 144.96875 92.25 C 144.96875 89.3125 144.242188 87.113281 142.792969 85.652344 C 141.34375 84.195312 139.179688 83.46875 136.300781 83.46875 L 131.6875 83.46875 L 131.6875 101.0625 Z M 131.6875 101.058594 " fill-opacity="1" fill-rule="nonzero"/><path fill="#000000" d="M 161.921875 99.335938 C 161.535156 99.335938 161.238281 99.226562 161.03125 99.007812 C 160.824219 98.792969 160.71875 98.492188 160.71875 98.109375 L 160.71875 93.832031 L 156.511719 93.832031 C 156.144531 93.832031 155.859375 93.730469 155.648438 93.53125 C 155.441406 93.332031 155.335938 93.046875 155.335938 92.683594 C 155.335938 92.316406 155.441406 92.035156 155.648438 91.832031 C 155.859375 91.632812 156.144531 91.535156 156.511719 91.535156 L 160.71875 91.535156 L 160.71875 87.386719 C 160.71875 87.003906 160.824219 86.707031 161.03125 86.5 C 161.242188 86.292969 161.546875 86.1875 161.945312 86.1875 C 162.347656 86.1875 162.621094 86.292969 162.824219 86.5 C 163.023438 86.710938 163.125 87.003906 163.125 87.386719 L 163.125 91.535156 L 167.332031 91.535156 C 167.714844 91.535156 168.007812 91.636719 168.207031 91.832031 C 168.410156 92.035156 168.507812 92.316406 168.507812 92.683594 C 168.507812 93.046875 168.40625 93.332031 168.207031 93.53125 C 168.007812 93.730469 167.714844 93.832031 167.332031 93.832031 L 163.125 93.832031 L 163.125 98.109375 C 163.125 98.492188 163.023438 98.792969 162.824219 99.007812 C 162.621094 99.226562 162.324219 99.335938 161.921875 99.335938 Z M 161.921875 99.335938 " fill-opacity="1" fill-rule="nonzero"/><path fill="#000000" d="M 33.566406 76.371094 L 33.566406 84.035156 C 33.566406 85.09375 32.28125 85.628906 31.527344 84.878906 L 26.046875 79.441406 C 25.574219 78.976562 24.816406 78.980469 24.351562 79.453125 L 23.078125 80.746094 C 22.621094 81.207031 22.625 81.953125 23.078125 82.417969 L 28.289062 87.714844 C 28.289062 87.714844 29.03125 88.617188 30.539062 88.617188 L 36.453125 88.617188 C 36.453125 88.617188 39.082031 88.65625 39.207031 91.910156 L 39.207031 97.523438 C 39.207031 97.609375 39.214844 97.699219 39.234375 97.785156 C 39.292969 98.054688 39.449219 98.660156 39.667969 98.953125 C 39.886719 99.242188 43.59375 102.914062 45.304688 104.601562 C 45.773438 105.0625 46.527344 105.058594 46.992188 104.589844 L 48.257812 103.316406 C 48.71875 102.851562 48.71875 102.105469 48.257812 101.640625 L 42.8125 96.125 C 42.070312 95.371094 42.601562 94.097656 43.664062 94.097656 L 51.316406 94.097656 C 51.976562 94.097656 52.511719 93.5625 52.511719 92.902344 L 52.511719 91.101562 C 52.511719 90.441406 51.972656 89.90625 51.3125 89.910156 L 43.6875 89.933594 C 42.625 89.9375 42.085938 88.65625 42.832031 87.902344 L 48.265625 82.425781 C 48.738281 81.953125 48.726562 81.183594 48.238281 80.722656 L 46.917969 79.476562 C 46.445312 79.03125 45.703125 79.042969 45.246094 79.503906 L 39.847656 84.972656 C 39.101562 85.726562 37.8125 85.210938 37.800781 84.148438 L 37.722656 76.359375 C 37.714844 75.707031 37.183594 75.179688 36.527344 75.179688 L 34.757812 75.179688 C 34.101562 75.179688 33.566406 75.714844 33.566406 76.371094 Z M 33.566406 76.371094 " fill-opacity="1" fill-rule="nonzero"/><path fill="#000000" d="M 18.433594 91.246094 L 18.433594 93.203125 C 18.433594 93.859375 18.964844 94.390625 19.621094 94.390625 L 29.703125 94.390625 C 29.894531 94.390625 29.996094 94.625 29.855469 94.761719 L 22.746094 101.859375 C 22.28125 102.320312 22.277344 103.066406 22.734375 103.53125 L 23.957031 104.777344 C 24.417969 105.246094 25.171875 105.25 25.640625 104.792969 L 32.972656 97.613281 C 33.101562 97.488281 33.320312 97.582031 33.316406 97.761719 L 33.128906 108.050781 C 33.117188 108.710938 33.65625 109.257812 34.320312 109.257812 L 36.269531 109.257812 C 36.925781 109.257812 37.457031 108.726562 37.457031 108.070312 L 37.457031 92.109375 C 37.457031 92.109375 37.660156 90.253906 35.867188 90.210938 C 34.378906 90.175781 23.324219 90.085938 19.628906 90.058594 C 18.964844 90.050781 18.429688 90.585938 18.429688 91.246094 Z M 18.433594 91.246094 " fill-opacity="1" fill-rule="nonzero"/></svg>